<svg version="1.1" id="Layer_1" xmlns="http://www.w3.org/2000/svg" xmlns:xlink="http://www.w3.org/1999/xlink" x="0px" y="0px"
	 width="100%" viewBox="0 0 512 448" enable-background="new 0 0 512 448" xml:space="preserve">
<path fill="#000000" opacity="1.000000" stroke="none" 
	d="
M371.531342,1.000000 
	C368.460846,4.056325 363.866364,5.141175 359.834900,7.260925 
	C352.377747,11.181949 346.779358,16.721703 342.213837,23.559069 
	C340.524963,26.088369 338.784515,27.131908 335.253143,26.655653 
	C315.903198,24.046028 296.601471,21.225475 277.415985,17.555721 
	C266.691833,15.504435 258.622314,22.351213 256.457367,34.687965 
	C254.369293,46.586670 251.862091,58.428150 250.256180,70.391045 
	C248.206863,85.656738 245.116058,100.716499 242.453003,115.862564 
	C241.922592,118.879341 241.007935,120.308846 237.848831,120.369316 
	C220.368332,120.703949 203.378586,124.445900 186.317352,127.791229 
	C168.714157,131.242798 151.804626,136.725342 135.254440,143.594620 
	C129.876236,145.826859 124.565392,148.016663 119.579880,151.039749 
	C116.519829,152.895294 113.546143,152.950638 110.383850,150.540115 
	C99.124992,141.957748 86.000839,137.805359 72.174706,136.566956 
	C62.363506,135.688141 52.939903,138.691864 43.636711,142.087128 
	C29.219097,147.348877 18.856586,157.326553 10.720442,169.653046 
	C6.406263,176.189163 3.642328,183.771530 1.247569,191.713547 
	C1.000000,128.382919 1.000000,64.765823 1.000000,1.000000 
	C124.354187,1.000000 247.708435,1.000000 371.531342,1.000000 
z"/>
<path fill="#000000" opacity="1.000000" stroke="none" 
	d="
M513.000000,192.531342 
	C510.743439,186.673828 508.542053,180.365219 505.531708,174.295807 
	C500.699951,164.554001 493.714111,156.856323 485.162445,150.403702 
	C473.841858,141.861847 460.809540,137.162674 446.916565,136.607635 
	C432.076050,136.014725 418.087036,140.506607 405.880646,149.246735 
	C401.399292,152.455521 397.749908,152.966400 392.736542,150.215530 
	C381.544617,144.074417 369.832611,139.020554 357.328918,135.984451 
	C353.967560,135.168259 350.816132,133.525543 347.495911,132.495804 
	C330.059631,127.088051 311.986389,124.671448 294.076447,121.611496 
	C288.944885,120.734741 283.614410,120.322189 278.194580,120.070122 
	C280.839630,98.333328 284.372284,77.041367 289.055664,56.054680 
	C303.644409,56.365997 317.146881,59.877579 330.870422,61.788467 
	C333.451721,62.147888 334.845428,63.960579 335.391235,66.478256 
	C337.954681,78.303085 345.246490,87.117943 354.565521,93.972649 
	C361.871307,99.346489 370.251556,102.636436 379.662109,103.891006 
	C392.561249,105.610657 403.901642,101.727821 414.016174,95.117462 
	C425.922333,87.336136 433.220398,75.630180 435.593445,61.304939 
	C439.021210,40.612595 432.209595,23.694317 415.874512,10.904424 
	C410.467957,6.671259 404.008575,3.674427 397.128601,1.354675 
	C435.611664,1.000000 474.223358,1.000000 513.000000,1.000000 
	C513.000000,64.687469 513.000000,128.375076 513.000000,192.531342 
z"/>
<path fill="#000000" opacity="1.000000" stroke="none" 
	d="
M352.468658,449.000000 
	C352.148926,447.804565 353.147919,447.154083 354.024384,447.048126 
	C363.112152,445.949615 370.913849,441.155182 379.302368,438.120697 
	C389.091949,434.579315 398.109467,429.165070 407.313538,424.253326 
	C418.466522,418.301483 428.883698,411.091217 438.412231,403.019958 
	C452.077301,391.444763 464.633667,378.678558 474.217865,363.127380 
	C479.281982,354.910461 484.212708,346.638367 487.430786,337.691650 
	C493.683563,320.307892 498.050476,302.379669 496.567932,283.643829 
	C495.928772,275.565918 494.634705,267.522766 492.321777,259.716827 
	C491.737946,257.746521 491.800842,256.271179 493.257202,254.724457 
	C502.532440,244.873734 508.447754,233.147568 512.642822,220.141357 
	C513.000000,296.247620 513.000000,372.495270 513.000000,449.000000 
	C459.646057,449.000000 406.291687,449.000000 352.468658,449.000000 
z"/>
<path fill="#000000" opacity="1.000000" stroke="none" 
	d="
M1.000000,219.468658 
	C3.828635,224.230408 5.115417,230.065796 7.610687,235.476654 
	C10.794965,242.381577 15.360069,248.107773 20.140064,253.768616 
	C21.800293,255.734772 22.391375,257.370697 21.645580,260.023560 
	C18.304430,271.908234 16.668764,284.061462 17.386866,296.419617 
	C18.022856,307.364655 20.476854,317.945007 23.563822,328.489197 
	C25.957697,336.665985 29.529596,344.189758 33.222607,351.747620 
	C38.703705,362.964813 45.989197,372.982635 54.181438,382.281250 
	C63.669483,393.050659 74.407951,402.511261 86.100464,410.897919 
	C98.617149,419.875732 111.871490,427.458893 125.778847,434.116974 
	C134.607269,438.343536 143.904510,441.271790 152.748413,445.359009 
	C155.914154,446.822083 159.652863,446.395569 162.852539,448.641968 
	C109.060310,449.000000 55.120621,449.000000 1.000000,449.000000 
	C1.000000,372.645874 1.000000,296.291595 1.000000,219.468658 
z"/>
<path fill="#000000" opacity="1.000000" stroke="none" 
	d="
M269.967163,358.649475 
	C279.278809,359.263916 287.521423,356.483215 295.707336,353.905334 
	C304.678162,351.080383 313.574615,348.015045 321.895050,343.387115 
	C327.219025,340.425812 335.238586,343.125244 339.720947,348.534821 
	C345.185486,355.129852 345.373566,360.189758 341.784180,366.643188 
	C338.117706,373.235291 331.504333,375.193939 325.570374,378.004547 
	C313.903625,383.530457 301.548676,387.889648 288.886902,389.705170 
	C273.725647,391.879120 258.359863,393.973846 242.842804,391.585907 
	C233.874893,390.205841 224.660080,390.537933 215.889877,387.652161 
	C204.916138,384.041290 193.784927,381.057770 183.389954,375.631622 
	C178.805344,373.238464 174.914154,370.924103 172.238937,366.518707 
	C168.105667,359.712280 168.948181,354.260071 175.422134,347.364777 
	C180.252716,342.219818 187.447189,341.255707 193.540100,344.122925 
	C211.285904,352.473755 229.381027,359.609985 249.592697,358.696716 
	C256.209778,358.397736 262.851746,358.649719 269.967163,358.649475 
z"/>
<path fill="#000000" opacity="1.000000" stroke="none" 
	d="
M144.735474,285.102173 
	C142.908203,281.185455 140.558029,278.006866 139.431122,274.068665 
	C136.109726,262.461243 140.306351,247.823166 149.481583,240.311829 
	C161.701843,230.307648 174.173065,228.885773 186.826218,235.713715 
	C199.103165,242.338669 205.647049,252.809875 205.151932,266.383514 
	C204.311981,289.410706 182.655228,303.037994 162.265366,297.244507 
	C154.920929,295.157684 150.146454,290.121399 144.735474,285.102173 
z"/>
<path fill="#000000" opacity="1.000000" stroke="none" 
	d="
M371.004639,281.852966 
	C358.043091,303.452484 328.302643,304.707520 314.412964,283.891327 
	C303.056213,266.871185 308.930908,247.094254 326.038055,236.202805 
	C346.437531,223.215271 373.268097,239.828690 375.654755,261.213440 
	C376.509705,268.873871 374.618744,275.185516 371.004639,281.852966 
z"/>
</svg>
